<svg version="1.1" xmlns="http://www.w3.org/2000/svg" xmlns:xlink="http://www.w3.org/1999/xlink" width="32.36727" height="30.31897" viewBox="0,0,32.36727,30.31897"><defs><radialGradient cx="239.28431" cy="189.1713" r="14.63235" gradientUnits="userSpaceOnUse" id="color-1"><stop offset="0" stop-color="#000000"/><stop offset="1" stop-color="#000000" stop-opacity="0"/></radialGradient><linearGradient x1="227.86709" y1="176.56826" x2="249.87901" y2="176.56826" gradientUnits="userSpaceOnUse" id="color-2"><stop offset="0" stop-color="#453030"/><stop offset="1" stop-color="#495d6b"/></linearGradient><linearGradient x1="233.77375" y1="175.00271" x2="232.81929" y2="192.21895" gradientUnits="userSpaceOnUse" id="color-3"><stop offset="0" stop-color="#496b68"/><stop offset="1" stop-color="#453030"/></linearGradient></defs><g transform="translate(-223.32717,-162.61111)"><g data-paper-data="{&quot;isPaintingLayer&quot;:true}" fill-rule="nonzero" stroke-linejoin="miter" stroke-miterlimit="10" stroke-dasharray="" stroke-dashoffset="0" style="mix-blend-mode: normal"><path d="M253.91667,189.1713c0,3.03757 -29.26471,3.03757 -29.26471,0c0,-3.03757 6.55113,-5.5 14.63235,-5.5c8.08123,0 14.63235,2.46243 14.63235,5.5z" fill="url(#color-1)" stroke="none" stroke-width="0" stroke-linecap="butt"/><path d="M254.94444,183.36182c0,7.29411 -9.99298,6.41359 -16.0714,6.41359c-6.07842,0 -11.00596,-5.91305 -11.00596,-13.20715c0,-7.29411 4.92754,-13.20715 11.00596,-13.20715c6.07842,0 16.0714,12.70661 16.0714,20.00071z" fill="url(#color-2)" stroke="#000000" stroke-width="1.5" stroke-linecap="butt"/><path d="M241.89296,185.26001c-0.26357,4.75413 1.40184,7.28931 -10.5615,6.87645c-9.71208,-0.33517 -6.95977,-4.25169 -6.6962,-9.00582c0.26357,-4.75413 3.68889,-8.43007 7.65067,-8.21043c3.96177,0.21964 9.8706,5.58565 9.60703,10.33978z" fill="url(#color-3)" stroke="#000000" stroke-width="1.5" stroke-linecap="butt"/><path d="M243.41667,167.6713l-5.25,3.75l11.5,11.75l-4.75,6" fill="none" stroke="#000000" stroke-width="1.5" stroke-linecap="round"/><path d="M249.91667,182.6713l3,-1.25" fill="none" stroke="#000000" stroke-width="1.5" stroke-linecap="round"/><path d="M225.91667,181.4213l8,2v5.75" fill="none" stroke="#000000" stroke-width="1.5" stroke-linecap="round"/><path d="M233.66667,183.1713l4.75,-2" fill="none" stroke="#000000" stroke-width="1.5" stroke-linecap="round"/><path d="M238.16667,171.6713l-8,-0.5" fill="none" stroke="#000000" stroke-width="1.5" stroke-linecap="round"/></g></g></svg>