<svg version="1.1" xmlns="http://www.w3.org/2000/svg" xmlns:xlink="http://www.w3.org/1999/xlink" width="235.6405" height="644.38637" viewBox="0,0,235.6405,644.38637"><defs><radialGradient cx="-18.09379" cy="335.91666" r="72.5" gradientUnits="userSpaceOnUse" id="color-1"><stop offset="0" stop-color="#000000"/><stop offset="1" stop-color="#000000" stop-opacity="0"/></radialGradient><radialGradient cx="-50.32186" cy="81.16667" r="192.68207" gradientUnits="userSpaceOnUse" id="color-2"><stop offset="0" stop-color="#494d7d"/><stop offset="1" stop-color="#6e769d"/></radialGradient><linearGradient x1="8.15621" y1="122.86622" x2="27.15621" y2="122.86622" gradientUnits="userSpaceOnUse" id="color-3"><stop offset="0" stop-color="#4d545c"/><stop offset="1" stop-color="#9cb3ba"/></linearGradient><linearGradient x1="6.65621" y1="120.36622" x2="25.65621" y2="120.36622" gradientUnits="userSpaceOnUse" id="color-4"><stop offset="0" stop-color="#4d545c"/><stop offset="1" stop-color="#9cb3ba"/></linearGradient><linearGradient x1="8.28121" y1="97.99122" x2="8.28121" y2="128.99122" gradientUnits="userSpaceOnUse" id="color-5"><stop offset="0" stop-color="#818799"/><stop offset="1" stop-color="#e0ecff"/></linearGradient><linearGradient x1="9.95542" y1="95.96612" x2="1.857" y2="130.01632" gradientUnits="userSpaceOnUse" id="color-6"><stop offset="0" stop-color="#818799"/><stop offset="1" stop-color="#e0ecff"/></linearGradient><linearGradient x1="70.40621" y1="191.49121" x2="136.40621" y2="191.49121" gradientUnits="userSpaceOnUse" id="color-7"><stop offset="0" stop-color="#2d2f43"/><stop offset="1" stop-color="#889ba1"/></linearGradient><linearGradient x1="67.65621" y1="189.49121" x2="133.65621" y2="189.49121" gradientUnits="userSpaceOnUse" id="color-8"><stop offset="0" stop-color="#2d2f43"/><stop offset="1" stop-color="#889ba1"/></linearGradient><linearGradient x1="107.37843" y1="160.64398" x2="114.37843" y2="160.64398" gradientUnits="userSpaceOnUse" id="color-9"><stop offset="0" stop-color="#633500"/><stop offset="1" stop-color="#d9b66b"/></linearGradient><linearGradient x1="67.40621" y1="187.74121" x2="133.40621" y2="187.74121" gradientUnits="userSpaceOnUse" id="color-10"><stop offset="0" stop-color="#2d2f43"/><stop offset="1" stop-color="#889ba1"/></linearGradient><radialGradient cx="90.89275" cy="182.05981" r="17.55599" gradientUnits="userSpaceOnUse" id="color-11"><stop offset="0" stop-color="#0b000d"/><stop offset="1" stop-color="#0b000d" stop-opacity="0"/></radialGradient><linearGradient x1="75.00343" y1="176.79214" x2="111.55899" y2="176.79214" gradientUnits="userSpaceOnUse" id="color-12"><stop offset="0" stop-color="#0b000d"/><stop offset="1" stop-color="#770600"/></linearGradient><linearGradient x1="85.90621" y1="173.44954" x2="93.90621" y2="173.44954" gradientUnits="userSpaceOnUse" id="color-13"><stop offset="0" stop-color="#633500"/><stop offset="1" stop-color="#d9b66b"/></linearGradient><linearGradient x1="107.2951" y1="167.92403" x2="113.51733" y2="167.92403" gradientUnits="userSpaceOnUse" id="color-14"><stop offset="0" stop-color="#633500"/><stop offset="1" stop-color="#d9b66b"/></linearGradient><linearGradient x1="93.15621" y1="174.19954" x2="101.15621" y2="174.19954" gradientUnits="userSpaceOnUse" id="color-15"><stop offset="0" stop-color="#633500"/><stop offset="1" stop-color="#d9b66b"/></linearGradient><linearGradient x1="99.15621" y1="174.44954" x2="107.15621" y2="174.44954" gradientUnits="userSpaceOnUse" id="color-16"><stop offset="0" stop-color="#633500"/><stop offset="1" stop-color="#d9b66b"/></linearGradient><linearGradient x1="105.2951" y1="182.5907" x2="111.51732" y2="182.5907" gradientUnits="userSpaceOnUse" id="color-17"><stop offset="0" stop-color="#633500"/><stop offset="1" stop-color="#d9b66b"/></linearGradient><linearGradient x1="75.53121" y1="172.19954" x2="75.53121" y2="190.44954" gradientUnits="userSpaceOnUse" id="color-18"><stop offset="0" stop-color="#070921"/><stop offset="1" stop-color="#35394c"/></linearGradient><linearGradient x1="78.46177" y1="174.67176" x2="86.46177" y2="174.67176" gradientUnits="userSpaceOnUse" id="color-19"><stop offset="0" stop-color="#633500"/><stop offset="1" stop-color="#d9b66b"/></linearGradient><linearGradient x1="68.40621" y1="165.24121" x2="134.40621" y2="165.24121" gradientUnits="userSpaceOnUse" id="color-20"><stop offset="0" stop-color="#202242"/><stop offset="1" stop-color="#9cb3ba"/></linearGradient><linearGradient x1="105.33677" y1="153.38473" x2="105.33677" y2="167.82917" gradientUnits="userSpaceOnUse" id="color-21"><stop offset="0" stop-color="#000000"/><stop offset="1" stop-color="#000000" stop-opacity="0"/></linearGradient><linearGradient x1="89.2951" y1="189.78288" x2="96.0451" y2="189.78288" gradientUnits="userSpaceOnUse" id="color-22"><stop offset="0" stop-color="#633500"/><stop offset="1" stop-color="#d9b66b"/></linearGradient><linearGradient x1="104.62843" y1="187.81292" x2="110.85066" y2="187.81292" gradientUnits="userSpaceOnUse" id="color-23"><stop offset="0" stop-color="#633500"/><stop offset="1" stop-color="#d9b66b"/></linearGradient><linearGradient x1="107.78121" y1="134.94028" x2="107.78121" y2="149.38473" gradientUnits="userSpaceOnUse" id="color-24"><stop offset="0" stop-color="#000000"/><stop offset="1" stop-color="#000000" stop-opacity="0"/></linearGradient><linearGradient x1="96.12843" y1="191.69954" x2="102.68399" y2="191.69954" gradientUnits="userSpaceOnUse" id="color-25"><stop offset="0" stop-color="#633500"/><stop offset="1" stop-color="#d9b66b"/></linearGradient><linearGradient x1="103.51732" y1="193.03514" x2="109.73955" y2="193.03514" gradientUnits="userSpaceOnUse" id="color-26"><stop offset="0" stop-color="#633500"/><stop offset="1" stop-color="#d9b66b"/></linearGradient><radialGradient cx="108.03121" cy="159.19954" r="8.75" gradientUnits="userSpaceOnUse" id="color-27"><stop offset="0" stop-color="#dfb3b3"/><stop offset="1" stop-color="#ae3030"/></radialGradient><radialGradient cx="110.53121" cy="142.19954" r="8.75" gradientUnits="userSpaceOnUse" id="color-28"><stop offset="0" stop-color="#dfb3b3"/><stop offset="1" stop-color="#ae3030"/></radialGradient><linearGradient x1="82.62843" y1="189.47959" x2="88.85066" y2="189.47959" gradientUnits="userSpaceOnUse" id="color-29"><stop offset="0" stop-color="#633500"/><stop offset="1" stop-color="#d9b66b"/></linearGradient><linearGradient x1="75.73954" y1="189.25737" x2="81.96177" y2="189.25737" gradientUnits="userSpaceOnUse" id="color-30"><stop offset="0" stop-color="#633500"/><stop offset="1" stop-color="#d9b66b"/></linearGradient></defs><g transform="translate(119.32186,222.75396)"><g data-paper-data="{&quot;isPaintingLayer&quot;:true}" fill-rule="nonzero" stroke-linejoin="miter" stroke-miterlimit="10" stroke-dasharray="" stroke-dashoffset="0" style="mix-blend-mode: normal"><path d="M-119.32186,421.63241l28.72807,-139.14119l138,5.1734l30.55263,131.67748z" fill="url(#color-1)" stroke="none" stroke-width="0" stroke-linecap="butt"/><path d="M-60.68758,350.74857c0,0 -2.29934,-282.94519 6.28665,-336.90844c2.73658,-17.19952 52.41321,-32.02218 52.41321,-32.02218l98.67531,16.43351l-58.69985,368.93063z" fill="url(#color-2)" stroke="#000000" stroke-width="2" stroke-linecap="butt"/><path d="M37.45946,367.00752v-219.60661l58,-370v219.60661z" fill="#676c98" stroke="#000000" stroke-width="2" stroke-linecap="butt"/><path d="M37.40621,148.49122l-98,-17" fill="none" stroke="#000000" stroke-width="2" stroke-linecap="round"/><path d="M27.40621,135.49122l-98,-17" fill="none" stroke="#000000" stroke-width="2" stroke-linecap="round"/><path d="M27.40621,136.49122l31,-194" fill="none" stroke="#000000" stroke-width="2" stroke-linecap="round"/><g fill="#c0dce5" stroke="#000000" stroke-width="1" stroke-linecap="butt"><path d="M43.40621,294.49122v-32l6,-43v32z"/><path d="M43.40621,237.49122v-32l6,-43v32z"/><path d="M43.40621,179.49122v-32l6,-43v32z"/></g><g fill="#c0dce5" stroke="#000000" stroke-width="1" stroke-linecap="butt"><path d="M54.40621,223.99122v-32l6,-43v32z"/><path d="M54.40621,166.99122v-32l6,-43v32z"/><path d="M54.40621,108.99122v-32l6,-43v32z"/></g><g fill="#c0dce5" stroke="#000000" stroke-width="1" stroke-linecap="butt"><path d="M67.40621,144.99122v-32l6,-43v32z"/><path d="M67.40621,87.99122v-32l6,-43v32z"/><path d="M67.40621,29.99122v-32l6,-43v32z"/></g><g fill="#c0dce5" stroke="#000000" stroke-width="1" stroke-linecap="butt"><path d="M78.40621,73.99122v-32l6,-43v32z"/><path d="M78.40621,16.99122v-32l6,-43v32z"/><path d="M78.40621,-41.00879v-32l6,-43v32z"/></g><path d="M8.15621,128.49122l2.51807,-14.5l16.48193,2.25l-2.51807,15.5z" fill="url(#color-3)" stroke="#000000" stroke-width="1" stroke-linecap="butt"/><path d="M6.65621,125.99122l2.51807,-14.5l16.48193,2.25l-2.51807,15.5z" fill="url(#color-4)" stroke="#000000" stroke-width="1" stroke-linecap="butt"/><path d="M22.15621,113.49122c0,8.56042 -6.21205,15.5 -13.875,15.5c-7.66295,0 -13.875,-6.93958 -13.875,-15.5c0,-8.56042 6.21205,-15.5 13.875,-15.5c7.66295,0 13.875,6.93958 13.875,15.5z" fill="url(#color-5)" stroke="#000000" stroke-width="1" stroke-linecap="butt"/><path d="M20.01272,116.34628c-2.23632,9.4027 -10.36491,15.52298 -18.15572,13.67003c-7.79081,-1.85295 -12.29361,-10.97745 -10.0573,-20.38016c2.23632,-9.4027 10.36491,-15.52298 18.15572,-13.67003c7.79081,1.85295 12.29361,10.97745 10.0573,20.38016z" fill="url(#color-6)" stroke="#000000" stroke-width="1" stroke-linecap="butt"/><path d="M65.15621,197.86621l5.25,-34.75h44.75l-5.25,34.75z" fill="url(#color-7)" stroke="#000000" stroke-width="2" stroke-linecap="butt"/><path d="M4.90621,116.86622c0,0 0.30705,-1.36681 0.00138,-1.84229c-0.41207,-0.641 -6.05138,-2.25771 -6.05138,-2.25771c0,0 5.95947,0.45891 6.5651,0.17629c0.64223,-0.29971 0.9849,-1.32629 0.9849,-1.32629" fill="none" stroke="#000000" stroke-width="1" stroke-linecap="round"/><path d="M25.90621,114.11622l1,2" fill="none" stroke="#000000" stroke-width="1" stroke-linecap="round"/><path d="M22.65621,128.36622l1.5,2.25" fill="none" stroke="#000000" stroke-width="1" stroke-linecap="round"/><path d="M63.65621,195.86621l5.25,-34.75h39.5l-5.25,34.75z" fill="url(#color-8)" stroke="#000000" stroke-width="2" stroke-linecap="butt"/><path d="M107.37843,164.33843c0,0 2.66666,-8.5 4,-8.5c1.33334,0 3,8.5 3,8.5c0,0 -2.56323,1.11111 -3.70833,1.11111c-1.18675,0 -3.29167,-1.11111 -3.29167,-1.11111z" fill="url(#color-9)" stroke="#000000" stroke-width="1" stroke-linecap="butt"/><path d="M63.40621,194.11621l5.25,-34.75h33.25l-5.25,34.75z" fill="url(#color-10)" stroke="#000000" stroke-width="2" stroke-linecap="butt"/><path d="M108.44788,184.79214c0.06483,6.38163 -3.51821,9.77777 -16.44445,5.55555c-9.85811,-3.22005 -18.66667,-0.72915 -18.66667,-7.11111c0,-6.38196 10.4071,-11.33334 20.77778,-11.33334c10.37068,0 14.22222,1.95138 14.33333,12.88889z" fill="url(#color-11)" stroke="#000000" stroke-width="0" stroke-linecap="butt"/><path d="M110.11455,178.34769c0.06483,6.38163 -3.51821,9.77777 -16.44445,5.55555c-9.85811,-3.22005 -18.66667,-0.72915 -18.66667,-7.11111c0,-6.38196 10.4071,-11.33334 20.77778,-11.33334c10.37068,0 14.22223,1.95138 14.33334,12.88889z" fill="url(#color-12)" stroke="#000000" stroke-width="1.5" stroke-linecap="butt"/><path d="M87.44788,176.27362c0,0 3.31504,-2.84076 7.67167,-2.38065c3.24273,0.34247 6.45893,-0.16039 8.20024,0.14434c2.42369,0.42415 4.79476,5.1252 4.79476,5.1252" fill="none" stroke="#000000" stroke-width="1.5" stroke-linecap="round"/><path d="M93.90621,169.19954c0,0 -2.66666,8.5 -4,8.5c-1.33334,0 -4,-8.5 -4,-8.5z" data-paper-data="{&quot;index&quot;:null}" fill="url(#color-13)" stroke="#000000" stroke-width="1" stroke-linecap="butt"/><path d="M107.2951,170.78288c0,0 1.55555,-6.94445 2.88889,-6.94445c1.33334,0 3.33334,7.38889 3.33334,7.38889c0,0 -2.22743,1.01317 -3.46596,0.7335c-1.01147,-0.2284 -2.75626,-1.17794 -2.75626,-1.17794z" fill="url(#color-14)" stroke="#000000" stroke-width="1" stroke-linecap="butt"/><path d="M101.15621,169.94954c0,0 -2.66666,8.5 -4,8.5c-1.33334,0 -4,-8.5 -4,-8.5z" data-paper-data="{&quot;index&quot;:null}" fill="url(#color-15)" stroke="#000000" stroke-width="1" stroke-linecap="butt"/><path d="M107.15621,170.19954c0,0 -2.66666,8.5 -4,8.5c-1.33334,0 -4,-8.5 -4,-8.5z" data-paper-data="{&quot;index&quot;:null}" fill="url(#color-16)" stroke="#000000" stroke-width="1" stroke-linecap="butt"/><path d="M105.2951,185.44955c0,0 1.55555,-6.94445 2.88889,-6.94445c1.33334,0 3.33333,7.38889 3.33333,7.38889c0,0 -2.22743,1.01317 -3.46596,0.7335c-1.01147,-0.2284 -2.75626,-1.17794 -2.75626,-1.17794z" fill="url(#color-17)" stroke="#000000" stroke-width="1" stroke-linecap="butt"/><path d="M64.15621,190.44954v-18.25h22.75v18.25z" fill="url(#color-18)" stroke="#000000" stroke-width="2" stroke-linecap="butt"/><path d="M86.46177,170.42176c0,0 -2.66666,8.5 -4,8.5c-1.33334,0 -4,-8.5 -4,-8.5z" data-paper-data="{&quot;index&quot;:null}" fill="url(#color-19)" stroke="#000000" stroke-width="1" stroke-linecap="butt"/><path d="M63.15621,171.61621l5.25,-34.75h44.75l-5.25,34.75z" fill="url(#color-20)" stroke="#000000" stroke-width="2" stroke-linecap="butt"/><path d="M110.00343,160.60695c0,3.98872 -2.08933,7.22222 -4.66666,7.22222c-2.57733,0 -9.88889,0.21095 -9.88889,-3.77777c0,-3.98872 7.31156,-10.66667 9.88889,-10.66667c2.57733,0 4.66666,3.2335 4.66666,7.22223z" fill="url(#color-21)" stroke="#000000" stroke-width="1.5" stroke-linecap="butt"/><path d="M89.2951,192.69954c0,0 1.91666,-7.5 3.20833,-7.5c1.29166,0 3.54167,7.72222 3.54167,7.72222c0,0 -2.51865,1.44445 -3.81945,1.44445c-1.28227,0 -2.93055,-1.66666 -2.93055,-1.66666z" fill="url(#color-22)" stroke="#000000" stroke-width="1" stroke-linecap="butt"/><path d="M104.62843,190.67177c0,0 1.55555,-6.94445 2.88889,-6.94445c1.33334,0 3.33334,7.38889 3.33334,7.38889c0,0 -2.22743,1.01317 -3.46596,0.7335c-1.01147,-0.2284 -2.75626,-1.17794 -2.75626,-1.17794z" fill="url(#color-23)" stroke="#000000" stroke-width="1" stroke-linecap="butt"/><path d="M112.44788,142.16251c0,3.98872 -2.08933,7.22222 -4.66666,7.22222c-2.57733,0 -9.88889,0.21095 -9.88889,-3.77777c0,-3.98872 7.31156,-10.66667 9.88889,-10.66667c2.57733,0 4.66666,3.2335 4.66666,7.22223z" fill="url(#color-24)" stroke="#000000" stroke-width="1.5" stroke-linecap="butt"/><path d="M96.12843,194.39399c0,0 1.44445,-6.94444 2.77778,-6.94444c1.33334,0 3.77778,7.72222 3.77778,7.72222c0,0 -2.6132,0.77778 -4.01389,0.77778c-1.24841,0 -2.54167,-1.55556 -2.54167,-1.55556z" fill="url(#color-25)" stroke="#000000" stroke-width="1" stroke-linecap="butt"/><path d="M103.51732,195.89399c0,0 1.55555,-6.94444 2.88889,-6.94444c1.33334,0 3.33334,7.38889 3.33334,7.38889c0,0 -2.22743,1.01317 -3.46596,0.7335c-1.01147,-0.2284 -2.75626,-1.17794 -2.75626,-1.17794z" fill="url(#color-26)" stroke="#000000" stroke-width="1" stroke-linecap="butt"/><path d="M110.15621,159.19954c0,4.83249 -0.9514,8.75 -2.125,8.75c-1.1736,0 -2.125,-3.91751 -2.125,-8.75c0,-4.83249 0.9514,-8.75 2.125,-8.75c1.1736,0 2.125,3.91751 2.125,8.75z" fill="url(#color-27)" stroke="#000000" stroke-width="1" stroke-linecap="butt"/><path d="M112.65621,142.19954c0,4.83249 -0.9514,8.75 -2.125,8.75c-1.1736,0 -2.125,-3.91751 -2.125,-8.75c0,-4.83249 0.9514,-8.75 2.125,-8.75c1.1736,0 2.125,3.91751 2.125,8.75z" fill="url(#color-28)" stroke="#000000" stroke-width="1" stroke-linecap="butt"/><path d="M109.26732,158.86621c0,1.38071 -0.39175,2.5 -0.875,2.5c-0.48325,0 -0.875,-1.11929 -0.875,-2.5c0,-1.38071 0.39175,-2.5 0.875,-2.5c0.48325,0 0.875,1.11929 0.875,2.5z" fill="#000000" stroke="#000000" stroke-width="1" stroke-linecap="butt"/><path d="M111.71177,142.97732c0,1.38071 -0.39175,2.5 -0.875,2.5c-0.48325,0 -0.875,-1.11929 -0.875,-2.5c0,-1.38071 0.39175,-2.5 0.875,-2.5c0.48325,0 0.875,1.11929 0.875,2.5z" fill="#000000" stroke="#000000" stroke-width="1" stroke-linecap="butt"/><path d="M103.44788,158.12547l4.44445,-6.88889v-18.55555" fill="none" stroke="#000000" stroke-width="3" stroke-linecap="round"/><path d="M108.89232,158.77362c0,0.76706 -0.19899,1.38889 -0.44445,1.38889c-0.24546,0 -0.44445,-0.62183 -0.44445,-1.38889c0,-0.76706 0.19899,-1.38889 0.44445,-1.38889c0.24546,0 0.44445,0.62183 0.44445,1.38889z" fill="#ffffff" stroke="none" stroke-width="0" stroke-linecap="butt"/><path d="M111.23183,143.0514c0,0.92048 -0.19346,1.66666 -0.4321,1.66666c-0.23864,0 -0.4321,-0.74619 -0.4321,-1.66666c0,-0.92048 0.19346,-1.66667 0.4321,-1.66667c0.23864,0 0.4321,0.7462 0.4321,1.66667z" fill="#ffffff" stroke="none" stroke-width="0" stroke-linecap="butt"/><path d="M82.62843,192.33843c0,0 1.55555,-6.94445 2.88889,-6.94445c1.33334,0 3.33334,7.38889 3.33334,7.38889c0,0 -2.22743,1.01317 -3.46596,0.7335c-1.01147,-0.2284 -2.75626,-1.17794 -2.75626,-1.17794z" fill="url(#color-29)" stroke="#000000" stroke-width="1" stroke-linecap="butt"/><path d="M75.73954,192.11621c0,0 1.55555,-6.94445 2.88889,-6.94445c1.33334,0 3.33334,7.38889 3.33334,7.38889c0,0 -2.22743,1.01317 -3.46596,0.7335c-1.01147,-0.2284 -2.75626,-1.17794 -2.75626,-1.17794z" fill="url(#color-30)" stroke="#000000" stroke-width="1" stroke-linecap="butt"/><path d="M95.17814,-24.51342l-57.5,363.5l-98.5,-16.83334" fill="none" stroke="#000000" stroke-width="2" stroke-linecap="round"/><path d="M36.17814,340.49999l-96.5,-17" fill="none" stroke="#bcc0e2" stroke-width="1.5" stroke-linecap="round"/></g></g></svg>